<?xml version="1.0" encoding="iso-8859-1"?>
<!-- Generator: Adobe Illustrator 16.0.0, SVG Export Plug-In . SVG Version: 6.00 Build 0)  -->
<!DOCTYPE svg PUBLIC "-//W3C//DTD SVG 1.1//EN" "http://www.w3.org/Graphics/SVG/1.1/DTD/svg11.dtd">
<svg version="1.1" id="Capa_1" xmlns="http://www.w3.org/2000/svg" xmlns:xlink="http://www.w3.org/1999/xlink" x="0px" y="0px"
	 width="380.721px" height="380.722px" viewBox="0 0 380.721 380.722" style="enable-background:new 0 0 380.721 380.722;"
	 xml:space="preserve">
<g>
	<g>
		<path d="M366.953,167.692l13.769-17.55L262.908,40.294l-134.417,107.02l14.303,17.533l19.514-15.703l32.991,169.162h-75.324
			l-3.283-1.476l-10.329-13.199c20.878-7.668,35.849-27.594,36.012-51.099c0.25-0.802,0.5-1.569,0.691-2.266
			c0.383-1.302,14.721-15.593,14.721-15.593l-17.004-4.566c-4.293-13.431-16.882-23.167-31.742-23.167
			c-17.039,0-31.051,12.78-33.061,29.268c-0.018,0-0.018,0.012-0.018,0.012c-8.075-1.162-15.633-13.792-23.412-35.81
			c-17.312,20.577-16.254,43.396-11.055,51.959C30.482,253.578,9.254,247.117,0,242.075c16.132,36.088,39.225,53.69,61.817,58.535
			c7.663,4.078,16.371,6.413,25.654,6.413c0.987,0,1.94-0.081,2.916-0.139l-4.606,7.796l-9.696,3.183l0.157,0.442H9.057v22.122
			h328.768v-22.122h-22.146l36.437-166.031L366.953,167.692z M122.066,223.916c5.06,0,9.161,4.089,9.161,9.154
			c0,5.055-4.102,9.156-9.161,9.156c-5.054,0-9.155-4.09-9.155-9.156C112.911,228.005,117.012,223.916,122.066,223.916z
			 M93.432,306.688c3.59-0.396,7.093-1.104,10.434-2.162l9.958,12.746l-2.76,1.022H90.899l-2.69-2.754L93.432,306.688z
			 M86.28,317.189l1.098,1.116h-4.514L86.28,317.189z M257.377,217.77c-19.462,0-35.229-15.779-35.229-35.229
			c0-19.455,15.767-35.216,35.229-35.216c19.449,0,35.216,15.778,35.216,35.216C292.593,201.99,276.827,217.77,257.377,217.77z
			 M274.898,251.777c0,8.26-6.692,14.977-14.965,14.977c-8.296,0-14.988-6.705-14.988-14.977c0-8.285,6.692-14.988,14.988-14.988
			C268.206,236.789,274.898,243.504,274.898,251.777z"/>
		<path d="M122.699,237.637c2.533,0,4.584-2.033,4.584-4.566c0-2.521-2.051-4.577-4.584-4.577l0,0
			c0.204,0.372,0.332,0.755,0.332,1.185c0,1.406-1.139,2.533-2.544,2.533c-0.808,0-1.499-0.395-1.964-0.999
			c-0.25,0.569-0.389,1.185-0.389,1.858C118.133,235.604,120.178,237.637,122.699,237.637z"/>
	</g>
</g>
<g>
</g>
<g>
</g>
<g>
</g>
<g>
</g>
<g>
</g>
<g>
</g>
<g>
</g>
<g>
</g>
<g>
</g>
<g>
</g>
<g>
</g>
<g>
</g>
<g>
</g>
<g>
</g>
<g>
</g>
</svg>
